<svg xmlns="http://www.w3.org/2000/svg" width="1820" height="838" viewBox="0 0 1820 838">

<style>
  .title { font: 700 40px Arial, sans-serif; fill: #0f172a; }
  .subtitle { font: 500 22px Arial, sans-serif; fill: #475569; }
  .label { font: 500 22px Arial, sans-serif; fill: #0f172a; }
  .small { font: 400 18px Arial, sans-serif; fill: #334155; }
  .tick { font: 500 18px Arial, sans-serif; fill: #475569; }
  .ok { fill: #16a34a; }
  .warn { fill: #d97706; }
  .bad { fill: #dc2626; }
  .grid { stroke: #e2e8f0; stroke-width: 1; }
  .axis { stroke: #94a3b8; stroke-width: 2; }
  .value { font: 600 21px Arial, sans-serif; fill: #0f172a; }
</style>
<rect width="1820" height="838" fill="#ffffff" />
<text class="title" x="36" y="54">Requirement Evidence Table (Poster Ready)</text>
<text class="subtitle" x="36" y="88">Directly derived from measured results in your test run summary.</text>

<rect x="24" y="34" width="1772" height="78" fill="#e2e8f0" />
<text class="label" x="36" y="80">Requirement</text>
<text class="label" x="480" y="80">Target</text>
<text class="label" x="720" y="80">Testability</text>
<text class="label" x="1000" y="80">Measured evidence</text>
<text class="label" x="1680" y="80">Status</text>
<rect x="24" y="112" width="1772" height="78" fill="#ffffff" />
<text class="small" x="36" y="158">Dashboard update</text>
<text class="small" x="480" y="158">&lt; 1000 ms</text>
<text class="small" x="720" y="158">Fully testable</text>
<text class="small" x="1000" y="158">Dashboard got the update in 19.54 ms</text>
<text x="1680" y="158" font-family="Arial, sans-serif" font-size="19" font-weight="700" fill="#16a34a">PASS</text>
<line class="grid" x1="24" y1="190" x2="1796" y2="190" />
<rect x="24" y="190" width="1772" height="78" fill="#f8fafc" />
<text class="small" x="36" y="236">Historical data query</text>
<text class="small" x="480" y="236">&lt; 2000 ms</text>
<text class="small" x="720" y="236">Fully testable</text>
<text class="small" x="1000" y="236">History loaded in 7.96 ms (worst normal run)</text>
<text x="1680" y="236" font-family="Arial, sans-serif" font-size="19" font-weight="700" fill="#16a34a">PASS</text>
<line class="grid" x1="24" y1="268" x2="1796" y2="268" />
<rect x="24" y="268" width="1772" height="78" fill="#ffffff" />
<text class="small" x="36" y="314">Unauthorized access rejection</text>
<text class="small" x="480" y="314">100% reject</text>
<text class="small" x="720" y="314">Fully testable</text>
<text class="small" x="1000" y="314">30/30 unauthorized cards denied (11.16 ms)</text>
<text x="1680" y="314" font-family="Arial, sans-serif" font-size="19" font-weight="700" fill="#64748b">N/A</text>
<line class="grid" x1="24" y1="346" x2="1796" y2="346" />
<rect x="24" y="346" width="1772" height="78" fill="#f8fafc" />
<text class="small" x="36" y="392">Permission revoke</text>
<text class="small" x="480" y="392">&lt; 100 ms</text>
<text class="small" x="720" y="392">Fully testable</text>
<text class="small" x="1000" y="392">Card went from allowed to denied in 17.25 ms</text>
<text x="1680" y="392" font-family="Arial, sans-serif" font-size="19" font-weight="700" fill="#16a34a">PASS</text>
<line class="grid" x1="24" y1="424" x2="1796" y2="424" />
<rect x="24" y="424" width="1772" height="78" fill="#ffffff" />
<text class="small" x="36" y="470">Sampling rate</text>
<text class="small" x="480" y="470">1 Hz</text>
<text class="small" x="720" y="470">Partially testable</text>
<text class="small" x="1000" y="470">Sent data every 1 s, backend accepted 10/10</text>
<text x="1680" y="470" font-family="Arial, sans-serif" font-size="19" font-weight="700" fill="#64748b">N/A</text>
<line class="grid" x1="24" y1="502" x2="1796" y2="502" />
<rect x="24" y="502" width="1772" height="78" fill="#f8fafc" />
<text class="small" x="36" y="548">Light update</text>
<text class="small" x="480" y="548">&lt; 1000 ms</text>
<text class="small" x="720" y="548">Partially testable</text>
<text class="small" x="1000" y="548">Command/update path is fast, no physical lamp attached</text>
<text x="1680" y="548" font-family="Arial, sans-serif" font-size="19" font-weight="700" fill="#64748b">N/A</text>
<line class="grid" x1="24" y1="580" x2="1796" y2="580" />
<rect x="24" y="580" width="1772" height="78" fill="#ffffff" />
<text class="small" x="36" y="626">Brightness control response</text>
<text class="small" x="480" y="626">&lt; 300 ms</text>
<text class="small" x="720" y="626">Partially testable</text>
<text class="small" x="1000" y="626">Brightness command finished in 7.24 ms</text>
<text x="1680" y="626" font-family="Arial, sans-serif" font-size="19" font-weight="700" fill="#16a34a">PASS</text>
<line class="grid" x1="24" y1="658" x2="1796" y2="658" />
<rect x="24" y="658" width="1772" height="78" fill="#f8fafc" />
<text class="small" x="36" y="704">Daylight response</text>
<text class="small" x="480" y="704">&lt; 1000 ms</text>
<text class="small" x="720" y="704">Partially testable</text>
<text class="small" x="1000" y="704">Daylight mode command finished in 19.10 ms</text>
<text x="1680" y="704" font-family="Arial, sans-serif" font-size="19" font-weight="700" fill="#16a34a">PASS</text>
<line class="grid" x1="24" y1="736" x2="1796" y2="736" />

</svg>